<?xml version="1.0" encoding="UTF-8" standalone="no"?>
<svg width="186px" height="107px" viewBox="0 0 186 107" version="1.1" xmlns="http://www.w3.org/2000/svg" xmlns:xlink="http://www.w3.org/1999/xlink">
    <!-- Generator: Sketch 39.1 (31720) - http://www.bohemiancoding.com/sketch -->
    <title>ac_vignet_grey</title>
    <desc>Created with Sketch.</desc>
    <defs></defs>
    <g id="Vignet" stroke="none" stroke-width="1" fill="none" fill-rule="evenodd">
        <g id="ac_vignet_grey" fill="#3D4350">
            <path d="M114.6,32.1 C117.3,29.4 120.5,27.2 124.2,25.6 C127.9,24 131.8,23.2 135.9,23.2 C140.7,23.2 145.1,24 149.3,25.7 C153.4,27.4 156.9,30.2 159.8,34 L185.2,34 C182.7,28.1 179.7,23 176.1,18.8 C172.5,14.6 168.5,11.1 164.2,8.4 C159.9,5.7 155.3,3.7 150.4,2.5 C145.6,1.3 140.7,0.7 135.9,0.7 C128.5,0.7 121.6,2.1 115.2,4.9 C108.8,7.7 103.2,11.4 98.5,16.2 C97,17.7 95.6,19.2 94.4,20.9 C91.6,24.5 89.2,28.5 87.3,32.9 C84.7,39 83.3,45.6 83.2,52.5 L83.2,53.5 L83.2,54.6 C83.1,58.6 82.3,62.3 80.9,65.7 C79.3,69.4 77.2,72.6 74.4,75.3 C71.6,78 68.4,80.1 64.7,81.6 C61,83.1 57.1,83.8 52.9,83.8 C48.7,83.8 44.8,83 41.1,81.4 C37.4,79.8 34.2,77.6 31.5,74.9 C28.8,72.2 26.6,69 25,65.3 C23.4,61.6 22.6,57.7 22.6,53.6 L22.6,53.6 C22.6,49.5 23.4,45.5 25,41.9 C26.6,38.2 28.8,35 31.5,32.3 C34.2,29.6 37.4,27.4 41.1,25.8 C41.6,25.6 42.1,25.4 42.6,25.2 C45.9,24 49.3,23.4 52.9,23.4 C57.1,23.4 61,24.2 64.7,25.8 C68.4,27.4 71.6,29.6 74.3,32.3 C75.5,33.5 76.6,34.8 77.5,36.2 C78.1,34 78.9,31.9 79.8,29.8 C81.9,24.8 84.7,20.1 88,16 C88.3,15.7 88.5,15.3 88.8,15 C84.4,10.9 79.3,7.7 73.6,5.2 C67.2,2 60.3,0.6 53,0.6 C49.4,0.6 45.9,0.9 42.6,1.6 C39.1,2.3 35.6,3.4 32.4,4.8 C26,7.6 20.4,11.3 15.6,16.1 C10.7,20.8 7,26.4 4.2,32.7 C1.4,39.1 0,46 0,53.4 L0,53.4 C0,60.8 1.3,67.7 3.8,74.1 C6.3,80.5 9.9,86.1 14.5,90.9 C19.1,95.7 24.7,99.4 31.2,102.1 C37.7,104.8 45,106.2 53,106.2 C64.3,106.2 74.3,103 83.3,96.7 L83.3,102.1 L105.8,102.1 L105.8,96.7 L105.8,55.1 L105.8,53.4 L105.8,52.4 C105.9,48.6 106.7,45 108.2,41.7 C109.7,38 111.9,34.8 114.6,32.1 L114.6,32.1 Z" id="Shape"></path>
            <path d="M149.7,80.9 C145.6,82.8 141,83.7 135.9,83.7 C131.8,83.7 127.9,82.9 124.2,81.3 C120.5,79.7 117.3,77.5 114.6,74.8 C114.4,74.6 114.1,74.3 113.9,74 L113.9,101.4 C114.4,101.6 114.8,101.8 115.3,102 C121.7,104.8 128.6,106.2 136,106.2 C141,106.2 146,105.5 150.7,104.3 C155.5,103 160,101 164.3,98.3 C168.6,95.6 172.5,92.1 176,87.8 C179.6,83.5 182.6,78.5 185,72.7 L159.8,72.7 C157.2,76.2 153.9,79 149.7,80.9 L149.7,80.9 Z" id="Shape"></path>
        </g>
    </g>
</svg>